HIERARCHY
ROOT Hips
{
  OFFSET -35.4901 99.2528 17.4586
  CHANNELS 6 Xposition Yposition Zposition Zrotation Xrotation Yrotation
  JOINT LeftUpLeg
  {
    OFFSET 8.64259 1.95398 -2.38835
    CHANNELS 3 Zrotation Xrotation Yrotation
    JOINT LeftLeg
    {
      OFFSET 43.7702 0 0
      CHANNELS 3 Zrotation Xrotation Yrotation
      JOINT LeftFoot
      {
        OFFSET 40.6238 0 0
        CHANNELS 3 Zrotation Xrotation Yrotation
        JOINT LeftToeBase
        {
          OFFSET 12.7242 0 0
          CHANNELS 3 Zrotation Xrotation Yrotation
          End Site
          {
            OFFSET 0 0 0
          }
        }
      }
    }
  }
  JOINT RightUpLeg
  {
    OFFSET -8.2249 1.95398 -2.59336
    CHANNELS 3 Zrotation Xrotation Yrotation
    JOINT RightLeg
    {
      OFFSET 43.5653 0 0
      CHANNELS 3 Zrotation Xrotation Yrotation
      JOINT RightFoot
      {
        OFFSET 40.6238 0 0
        CHANNELS 3 Zrotation Xrotation Yrotation
        JOINT RightToeBase
        {
          OFFSET 12.7242 0 0
          CHANNELS 3 Zrotation Xrotation Yrotation
          End Site
          {
            OFFSET 0 0 0
          }
        }
      }
    }
  }
  JOINT Spine
  {
    OFFSET 0.165834 0.87714 6.61349
    CHANNELS 3 Zrotation Xrotation Yrotation
    JOINT Spine1
    {
      OFFSET 7.38963 1.71661e-005 0
      CHANNELS 3 Zrotation Xrotation Yrotation
      JOINT Spine2
      {
        OFFSET 11.9445 1.14441e-005 0
        CHANNELS 3 Zrotation Xrotation Yrotation
        JOINT Spine3
        {
          OFFSET 14.7254 4.19617e-005 0
          CHANNELS 3 Zrotation Xrotation Yrotation
          JOINT Spine4
          {
            OFFSET 10.9679 0 0
            CHANNELS 3 Zrotation Xrotation Yrotation
            JOINT RightShoulder
            {
              OFFSET 2.46616 -1.6653 3.69651
              CHANNELS 3 Zrotation Xrotation Yrotation
              JOINT RightArm
              {
                OFFSET 13.0012 0 0
                CHANNELS 3 Zrotation Xrotation Yrotation
                JOINT RightForeArm
                {
                  OFFSET 28.7848 1.52588e-005 0
                  CHANNELS 3 Zrotation Xrotation Yrotation
                  JOINT RightHand
                  {
                    OFFSET 26.5688 1.52588e-005 0
                    CHANNELS 3 Zrotation Xrotation Yrotation
                    End Site
                    {
                      OFFSET 0 0 0
                    }
                  }
                }
              }
            }
            JOINT LeftShoulder
            {
              OFFSET 2.38034 -1.29275 -3.7523
              CHANNELS 3 Zrotation Xrotation Yrotation
              JOINT LeftArm
              {
                OFFSET 16.3182 6.10351e-005 0
                CHANNELS 3 Zrotation Xrotation Yrotation
                JOINT LeftForeArm
                {
                  OFFSET 27.0901 0 0
                  CHANNELS 3 Zrotation Xrotation Yrotation
                  JOINT LeftHand
                  {
                    OFFSET 24.5451 1.52588e-005 0
                    CHANNELS 3 Zrotation Xrotation Yrotation
                    End Site
                    {
                      OFFSET 0 0 0
                    }
                  }
                }
              }
            }
            JOINT Neck
            {
              OFFSET 5.0226 -0.0266342 0
              CHANNELS 3 Zrotation Xrotation Yrotation
              JOINT Head
              {
                OFFSET 6.69364 2.86102e-005 0
                CHANNELS 3 Zrotation Xrotation Yrotation
                End Site
                {
                  OFFSET 0 0 0
                }
              }
            }
          }
        }
      }
    }
  }
}
MOTION
Frames:	17
Frame Time:	0.0416667
-35.9406 88.0244 39.422 26.6479 19.0333 121.749 -13.5206 85.4106 -70.0971 -42.735 11.5017 -10.549 72.2966 5.4871 -0.194171 0.990658 -3.12193 5.04591 33.4537 85.9407 -128.129 -45.7689 -16.3556 4.65392 73.33 -6.34636 -1.83531 14.4929 -1.11509 3.73187 0.951541 12.3594 -89.8151 2.15027 1.97165 0.401403 -9.51924 1.9874 0.314186 -32.0639 1.75984 0.975555 -12.0513 1.75984 0.975557 55.3606 -16.0041 -179.601 -82.8827 -6.16428 22.3559 14.3173 13.7742 -24.518 -16.72 2.79178 -21.315 -87.2566 -13.7256 72.7185 -12.9194 -28.2366 -92.171 16.3187 2.86412 -10.2519 3.90451 -0.217625 -6.68751 33.1022 -1.81468 2.45425 -7.47109 -2.60546 -3.40624 
-35.9718 87.6981 39.6423 26.5497 19.2805 121.953 -15.0549 84.9162 -68.3556 -43.2104 12.0166 -10.8884 72.6382 5.63938 -0.0246267 0.388418 -2.78608 4.70437 32.551 85.4195 -127.562 -46.591 -16.1518 4.94382 72.9765 -6.32199 -2.86688 16.0332 -2.47803 6.3772 0.914113 12.3574 -89.7789 2.15391 1.911 0.470686 -9.51571 1.92988 0.386099 -32.0594 1.68118 1.02341 -12.0467 1.68118 1.02339 71.1738 -5.98209 -167.587 -62.0442 6.31178 23.5814 9.37841 15.2224 -20.8774 -16.561 2.56548 -19.9446 -86.8263 -12.8539 73.3872 -12.8105 -27.794 -92.2859 16.2572 2.95075 -8.78402 4.24132 -0.248488 -7.09753 33.7107 -2.32466 0.847472 -8.03515 -2.4773 -1.7754 
-35.9975 87.7187 39.988 26.6975 19.6585 122.154 -15.9709 85.1809 -67.3665 -42.8045 12.2229 -10.967 70.5795 4.74668 -0.0237583 5.00051 -2.27514 4.13169 35.2668 85.5224 -130.336 -46.4555 -16.2695 5.06546 73.3593 -6.40689 -2.30359 14.8637 -1.62943 4.72529 0.907967 12.3116 -89.7989 2.24604 1.89127 0.428854 -9.42362 1.9083 0.345165 -31.9673 1.67493 0.977571 -11.9546 1.67492 0.977565 84.7825 1.11421 -146.247 -37.6176 26.1107 5.01966 5.42727 22.3351 -15.3376 -15.4093 2.8409 -21.8038 -87.0898 -13.4366 72.9981 -13.0257 -26.9297 -91.4644 15.7602 0.864864 -7.97732 3.43746 -0.258797 -8.04987 33.5154 -2.13114 1.82653 -8.11683 -2.66907 -2.5999 
-36.202 87.9404 40.3671 26.78 19.3206 122.155 -10.8455 85.5456 -72.2679 -41.542 12.265 -10.9467 70.7649 4.81479 0.290517 4.58707 -3.82072 5.78856 36.66 85.8002 -131.099 -45.2735 -15.9317 4.92104 73.1297 -6.22697 -1.80705 14.0747 -1.24761 3.99887 0.925359 12.1173 -89.7348 2.6332 1.95206 0.545647 -9.03636 1.97419 0.45918 -31.58 1.6978 1.10721 -11.5674 1.69781 1.10723 86.8032 -10.9891 -125.754 -20.3618 35.2116 -29.3948 4.61567 25.6576 -10.6964 -12.6667 2.92881 -24.8702 -87.1568 -13.4239 72.8271 -12.9054 -25.0358 -87.6811 14.2026 -3.9794 -7.83221 2.70364 -0.357268 -10.302 33.8616 -1.98125 2.18242 -8.98991 -2.64477 -2.96726 
-35.9678 88.6433 40.8171 28.6184 21.4721 122.189 -57.7322 88.9591 -26.0226 -38.9522 12.6407 -10.4519 70.4466 4.65544 0.00249888 3.28743 -3.56069 5.52825 90.7532 87.3639 174.775 -43.9504 -15.536 4.68134 71.992 -5.84663 -3.26105 15.4466 -1.39467 4.24369 0.88195 12.0498 -89.8099 2.77008 1.8363 0.39436 -8.89959 1.85188 0.313114 -31.4429 1.63286 0.928122 -11.4303 1.63286 0.92813 89.0341 -11.5059 -119.205 -4.00775 32.2421 -39.9657 4.04841 23.4773 -9.94705 -14.4542 3.04226 -24.004 -87.4853 -15.0846 72.7922 -13.2786 -20.0247 -82.5178 12.1841 -7.85632 -6.90729 4.53225 -0.410734 -9.6738 33.7355 -1.81422 2.54382 -10.111 -2.58266 -3.39922 
-35.6285 89.5966 41.172 30.8166 22.29 122.01 177.22 86.8772 99.0765 -36.3158 11.5223 -9.45281 68.4465 3.77111 0.615431 8.12627 -1.13569 2.78804 147.289 85.1536 119.519 -40.8452 -13.6027 4.06439 70.5963 -5.04827 -2.23205 17.6128 -1.78973 4.9947 0.906119 11.7705 -89.7802 3.3285 1.8975 0.440536 -8.34111 1.91502 0.356554 -30.8848 1.67736 0.990554 -10.8722 1.67734 0.990577 88.4433 -13.0316 -119.541 0.784285 23.5341 -37.4326 4.92798 13.0132 -9.62666 -19.8918 2.42994 -17.4213 -87.6132 -16.4528 73.1067 -12.1102 -12.9843 -75.0793 10.005 -4.3302 -6.28883 1.77469 -0.233052 -8.32459 32.747 -1.68446 1.93797 -10.792 -2.18353 -3.10181 
-34.9343 90.7961 41.5582 33.6647 24.4745 121.537 178.284 81.0294 97.9639 -32.0259 12 -9.03117 68.4429 3.67592 -0.472024 5.117 -4.10658 6.16801 163.728 80.1382 103.725 -37.6667 -13.0447 3.60154 69.5788 -4.51663 -2.13205 16.5981 -0.999282 3.41399 0.880128 11.5137 -89.8415 3.84329 1.8224 0.306193 -7.82641 1.83411 0.225647 -30.37 1.64611 0.839879 -10.3574 1.64611 0.839871 88.6934 -14.0337 -118.161 6.78832 12.9665 -35.3817 5.67494 -1.90573 -9.58828 -22.3268 2.05879 -16.2292 -88.44 -19.8557 72.6536 -8.58256 -5.34901 -66.9593 7.34965 4.94887 -7.44442 -1.9855 -0.102795 -8.20769 30.8362 -1.57112 0.699928 -11.4149 -1.63315 -1.93154 
-34.3165 91.8848 41.6706 36.4856 26.815 120.108 177.428 75.0588 97.429 -27.9816 11.0584 -7.63014 67.0871 3.08058 -0.836116 6.07031 -4.55471 6.69604 169.21 74.9815 98.0548 -34.6824 -13.06 3.14281 68.5846 -4.04891 -2.47903 16.6397 -1.35415 4.12936 0.793785 11.1249 -89.8273 4.62124 1.65664 0.319508 -7.04871 1.66911 0.246271 -29.5907 1.48402 0.802717 -9.57801 1.48401 0.802738 88.4992 -15.7432 -117.419 12.4307 3.45134 -31.354 6.6234 -8.75852 -10.6945 -23.6024 1.7206 -14.8555 -89.3381 -25.266 72.9142 -6.34979 1.88289 -59.4742 4.33854 8.59102 -7.88059 -1.14192 -0.132913 -8.31743 27.4646 -1.71579 -0.343295 -11.8164 -1.45249 -0.718246 
-33.4479 92.9009 41.7899 39.7457 28.614 118.745 176.505 69.1721 97.6568 -24.3093 9.84055 -6.04355 63.8243 1.7622 -1.09014 9.92505 -1.98747 3.75394 171.176 69.2977 96.5088 -31.3074 -12.5436 2.74224 67.948 -3.75038 -2.20379 16.166 -1.43808 4.31007 0.716543 10.6447 -89.8891 5.58311 1.47805 0.181938 -6.08702 1.48462 0.116688 -28.6279 1.35502 0.617809 -8.6153 1.35502 0.617801 87.1259 -18.9951 -118.471 15.2832 -3.29748 -25.3936 7.59474 -10.4142 -12.1002 -23.8098 1.41909 -13.4504 -89.1797 -31.1473 75.2416 -6.4684 8.05927 -52.2432 2.09697 7.68366 -8.81541 -0.583378 -0.158452 -8.71779 23.543 -0.829632 0.825534 -12.0702 -0.960707 -1.39916 
-32.1206 93.6946 41.6124 42.627 30.8614 117.568 176.386 63.6494 96.7492 -21.6951 9.99097 -4.5593 65.4126 2.45638 -1.72076 7.01432 -4.47071 6.63666 172.933 64.248 95.0319 -29.7904 -11.2417 2.04596 68.3532 -3.91682 -1.68131 15.8946 -1.28341 4.01108 0.611653 10.0707 -90.0683 6.73327 1.19264 -0.181708 -4.93715 1.1835 -0.234024 -27.4766 1.1921 0.185166 -7.46394 1.1921 0.185182 88.72 -19.1477 -114.725 24.1235 -8.41202 -22.3639 7.93479 -11.891 -12.0222 -24.5094 1.2105 -12.3501 -89.1063 -36.4053 76.9224 -8.93446 11.5141 -45.0279 0.810932 4.32406 -8.6745 -0.926584 -0.148451 -9.05199 17.7963 -0.127061 2.59834 -11.1154 -0.796509 -1.33978 
-30.5597 94.529 41.0209 45.4366 33.5288 116.595 176.7 57.9529 95.4172 -19.2002 11.2799 -3.27046 65.3085 2.48778 -1.67384 7.89701 -5.69818 8.0764 172.985 58.7799 94.4233 -28.063 -10.4251 1.9928 68.4531 -3.92789 -1.54636 16.5872 -1.36196 4.14485 0.475936 9.48206 -90.2953 7.9126 0.82109 -0.626086 -3.75824 0.792743 -0.661621 -26.2952 0.971289 -0.350366 -6.2825 0.971295 -0.350364 87.1843 -22.9019 -115.936 25.2768 -10.1231 -14.8831 8.16803 -10.1639 -13.6865 -23.9725 1.42186 -13.3381 -88.4833 -37.1056 78.1798 -14.5765 13.7566 -38.1928 1.31383 4.72148 -8.62305 0.718423 -0.228109 -9.44003 12.2868 0.488083 2.66668 -11.7035 -0.307258 1.55103 
-28.7457 95.4942 39.9836 50.0462 36.2022 114.009 177.473 50.7686 93.7837 -16.7377 11.5977 -2.24458 63.7479 1.94961 -1.31236 11.6826 -4.31915 6.58929 173.269 51.8509 93.6308 -26.426 -10.4535 1.71567 68.8776 -4.1172 -2.05303 16.5099 -1.31888 4.06134 0.387392 9.12525 -90.5926 8.62493 0.510438 -1.20478 -3.0465 0.456918 -1.22608 -25.5792 0.84891 -0.995709 -5.56652 0.848918 -0.995708 87.9508 -23.672 -113.86 29.5055 -8.01945 -11.3673 7.21159 -11.0791 -13.7724 -23.164 1.43364 -13.8633 -88.0443 -38.7554 79.3442 -17.4088 15.5447 -33.3869 0.798289 3.6479 -8.07965 1.40696 -0.286139 -10.2506 6.17802 1.46217 6.31967 -11.8171 0.110674 1.3165 
-26.8342 96.0988 38.6416 56.9379 39.0457 108.256 178.919 42.7223 91.1074 -16.2517 11.2787 -2.17109 65.9456 3.0031 -1.21966 11.596 -4.99253 7.42909 173.481 44.9283 91.6824 -28.0012 -11.4438 1.01961 70.8492 -5.08524 -2.66414 16.6272 -1.25383 3.92648 0.298425 8.94304 -90.6603 8.9877 0.300781 -1.32807 -2.68389 0.242023 -1.34003 -25.2148 0.685971 -1.17632 -5.20219 0.685967 -1.17632 88.4738 -23.2594 -112.956 33.7764 -7.37792 -8.16645 7.30507 -10.1074 -12.7756 -23.3063 1.66671 -14.8768 -87.1569 -40.3942 81.2101 -18.4092 17.371 -28.9373 0.159116 3.02273 -8.41779 -0.19196 -0.233775 -11.8865 -0.295605 1.71946 9.20129 -11.2976 0.321651 1.4922 
-24.869 96.292 37.0672 64.5179 41.0238 101.637 -178.851 39.2832 88.1306 -26.7845 6.62215 -2.33133 69.3056 4.56792 -2.05139 13.2772 -3.94241 6.13061 172.324 37.9569 89.3712 -29.6907 -12.513 1.03902 74.0057 -6.23876 -1.29103 17.5961 -1.51766 4.43471 0.244622 8.79534 -90.629 9.28269 0.205747 -1.26113 -2.38885 0.150042 -1.26896 -24.9199 0.575228 -1.14101 -4.9073 0.575218 -1.14101 88.4742 -25.1707 -111.981 34.3104 -8.09037 -5.95862 7.35686 -10.7704 -13.4663 -22.7007 1.39804 -13.8274 -86.9217 -41.1696 81.7593 -22.0536 16.2811 -22.3063 0.882293 2.45551 -8.78682 -2.0581 -0.113045 -12.4129 -6.52447 1.64815 10.5759 -11.5962 0.532101 2.84692 
-23.0112 96.8206 35.6326 72.7354 41.6446 95.4128 -175.542 44.1342 85.8344 -56.2816 10.3813 -0.068792 72.3891 5.97148 -0.999175 10.7768 -3.33344 5.14901 171.306 29.8182 87.939 -28.8462 -14.0446 0.889255 75.1504 -6.49656 -0.307504 19.5017 -1.73098 4.84674 0.250096 8.82061 -90.6264 9.2323 0.218138 -1.25649 -2.43923 0.162645 -1.26488 -24.9704 0.585679 -1.13287 -4.95776 0.585652 -1.13288 88.3902 -26.2614 -111.621 34.7532 -7.97952 -4.72492 7.76967 -10.1434 -13.3825 -22.7166 1.4531 -14.0097 -86.4775 -42.169 82.69 -23.6781 15.6555 -17.9911 1.18484 3.32005 -8.13297 -2.6023 -0.0766269 -12.0473 -11.651 1.58602 10.008 -10.7044 0.852582 4.67233 
-21.3659 97.2012 34.335 79.4057 41.2315 89.8815 -169.551 52.4686 80.9257 -82.7468 14.463 2.83112 71.3983 5.53605 0.0993778 14.5828 -1.25473 2.73897 171.238 23.7784 86.6821 -29.4868 -14.4989 -0.225031 76.3846 -6.82685 -0.0231908 19.7523 -1.67214 4.71409 0.251949 8.86411 -90.4739 9.14611 0.290518 -0.959233 -2.52516 0.248027 -0.971089 -25.0584 0.565357 -0.827592 -5.04571 0.565369 -0.827579 89.6886 -28.0075 -108.187 35.2321 -8.62733 -5.55598 7.9549 -10.9551 -12.9455 -22.8061 1.44913 -14.0788 -86.3878 -42.7402 82.9401 -24.0133 15.1668 -14.1756 1.47924 4.30861 -8.60214 -2.83473 -0.0609153 -11.5796 -15.3533 1.40993 9.02784 -10.5485 0.965027 5.57754 
-19.6752 97.3415 32.9211 85.6934 42.0416 85.4693 -160.695 59.1391 72.7672 -93.61 17.9702 3.51204 69.4866 4.56734 -0.25093 15.6237 -1.36667 2.83448 170.017 17.6981 85.4575 -29.8235 -15.574 -0.0805079 78.2669 -7.80076 -1.16967 18.9667 -1.5057 4.37545 0.174833 9.05544 -90.462 8.76268 0.143558 -0.92379 -2.90859 0.102749 -0.929214 -25.4415 0.414532 -0.837951 -5.4289 0.414548 -0.837937 90.216 -27.5609 -107.284 37.6391 -7.52024 -4.10775 6.8832 -10.9649 -13.8347 -21.7985 1.39437 -14.2323 -86.0078 -43.7649 83.7378 -23.6555 15.1137 -12.7796 1.34937 4.1484 -8.64696 -4.38727 0.03105 -11.2754 -16.5482 1.29299 8.98901 -11.1664 0.909731 5.62576 
